<svg width="45" height="45" viewBox="0 0 45 45" fill="none" xmlns="http://www.w3.org/2000/svg">
<circle cx="22.5" cy="22.5" r="22.5" fill="#FDB46F" fill-opacity="0.4"/>
<path d="M34 35C34 33.519 33.7025 32.0525 33.1246 30.6842C32.5467 29.3159 31.6996 28.0726 30.6317 27.0254C29.5639 25.9782 28.2961 25.1475 26.9009 24.5807C25.5056 24.0139 24.0102 23.7222 22.5 23.7222C20.9898 23.7222 19.4944 24.0139 18.0991 24.5807C16.7039 25.1475 15.4361 25.9782 14.3683 27.0254C13.3004 28.0726 12.4533 29.3159 11.8754 30.6842C11.2975 32.0525 11 33.519 11 35M22.5 18.8889C20.7571 18.8889 19.0857 18.2099 17.8533 17.0014C16.6209 15.7928 15.9286 14.1536 15.9286 12.4444C15.9286 10.7353 16.6209 9.0961 17.8533 7.88753C19.0857 6.67897 20.7571 6 22.5 6C24.2429 6 25.9143 6.67897 27.1467 7.88753C28.3791 9.0961 29.0714 10.7353 29.0714 12.4444C29.0714 14.1536 28.3791 15.7928 27.1467 17.0014C25.9143 18.2099 24.2429 18.8889 22.5 18.8889Z" stroke="white" stroke-width="2" stroke-linecap="round" stroke-linejoin="round"/>
</svg>
