<svg width="806" height="186" viewBox="0 0 806 186" fill="none" xmlns="http://www.w3.org/2000/svg">
<rect width="806" height="186" fill="black"/>
<path d="M155.768 106L172.728 58.448H184.76L201.976 106H191.544L187.64 93.904H169.72L165.816 106H155.768ZM171.768 86.608H185.592L183.8 81.296C182.2 76.304 180.408 70.736 178.744 65.616H178.488C176.952 70.8 175.16 76.304 173.56 81.296L171.768 86.608ZM237.752 106L223.736 70.032H233.208L239.544 88.016C240.76 91.536 241.912 95.248 243.064 98.896H243.384C244.472 95.248 245.624 91.536 246.84 88.016L253.176 70.032H262.2L248.568 106H237.752ZM313.464 106.768C302.328 106.768 298.424 100.56 298.424 91.28V77.52H289.08V70.416L298.872 70.096L300.088 60.368H307.832V70.096H323.704V77.52H307.832V91.216C307.832 96.976 310.136 99.408 315.832 99.408C318.648 99.408 321.144 98.768 323.32 98L325.112 104.848C321.912 105.808 317.88 106.768 313.464 106.768ZM371 106.768C361.08 106.768 351.992 99.856 351.992 88.08C351.992 76.176 361.08 69.328 371 69.328C380.856 69.328 389.944 76.176 389.944 88.08C389.944 99.856 380.856 106.768 371 106.768ZM371 99.088C376.888 99.088 380.216 94.736 380.216 88.08C380.216 81.424 376.888 77.072 371 77.072C365.048 77.072 361.72 81.424 361.72 88.08C361.72 94.736 365.048 99.088 371 99.088ZM430.2 106V66.32H414.328V58.448H455.608V66.32H439.672V106H430.2ZM493.752 106L479.736 70.032H489.208L495.544 88.016C496.76 91.536 497.912 95.248 499.064 98.896H499.384C500.472 95.248 501.624 91.536 502.84 88.016L509.176 70.032H518.2L504.568 106H493.752ZM563 106.768C553.08 106.768 543.992 99.856 543.992 88.08C543.992 76.176 553.08 69.328 563 69.328C572.856 69.328 581.944 76.176 581.944 88.08C581.944 99.856 572.856 106.768 563 106.768ZM563 99.088C568.888 99.088 572.216 94.736 572.216 88.08C572.216 81.424 568.888 77.072 563 77.072C557.048 77.072 553.72 81.424 553.72 88.08C553.72 94.736 557.048 99.088 563 99.088ZM629.112 106.768C617.784 106.768 608.824 99.856 608.824 88.08C608.824 76.368 618.168 69.328 628.024 69.328C639.224 69.328 645.368 76.56 645.368 86.352C645.368 88.144 645.112 89.872 644.984 90.768H618.424C619 96.656 624.056 99.536 630.392 99.536C634.104 99.536 637.432 98.64 640.824 96.848L643.96 102.736C639.864 105.36 634.424 106.768 629.112 106.768ZM618.36 84.368H636.792C636.792 79.568 633.912 76.432 628.152 76.432C623.416 76.432 619.256 79.184 618.36 84.368Z" fill="#FDB46F"/>
</svg>
