<svg width="263" height="339" viewBox="0 0 263 339" fill="none" xmlns="http://www.w3.org/2000/svg">
<path d="M261.875 337.125C261.875 320.004 258.503 303.05 251.951 287.233C245.399 271.415 235.796 257.042 223.689 244.936C211.583 232.83 197.21 223.226 181.392 216.674C165.575 210.122 148.621 206.75 131.5 206.75C114.379 206.75 97.4255 210.122 81.6076 216.674C65.7898 223.226 51.4174 232.83 39.311 244.936C27.2045 257.042 17.6012 271.415 11.0492 287.233C4.49725 303.05 1.125 320.004 1.125 337.125M131.5 150.875C111.741 150.875 92.792 143.026 78.8205 129.054C64.8491 115.083 57 96.1336 57 76.375C57 56.6164 64.8491 37.667 78.8205 23.6955C92.792 9.72408 111.741 1.875 131.5 1.875C151.259 1.875 170.208 9.72408 184.179 23.6955C198.151 37.667 206 56.6164 206 76.375C206 96.1336 198.151 115.083 184.179 129.054C170.208 143.026 151.259 150.875 131.5 150.875Z" stroke="white" stroke-width="2" stroke-linecap="round" stroke-linejoin="round"/>
</svg>
